<?xml version="1.0" encoding="UTF-8"?>
<svg id="Layer_2" data-name="Layer 2" xmlns="http://www.w3.org/2000/svg" viewBox="0 0 63.81 78.04">
  <g id="BACKGROUND">
    <g>
      <circle cx="2.2" cy="2.2" r="2.2" fill="#bbb9ba"/>
      <circle cx="2.2" cy="16.93" r="2.2" fill="#bbb9ba"/>
      <path d="M4.4,31.66c0-1.22-.99-2.2-2.2-2.2s-2.2,.99-2.2,2.2,.99,2.2,2.2,2.2,2.2-.99,2.2-2.2Z" fill="#bbb9ba"/>
      <path d="M4.4,46.38c0-1.22-.99-2.2-2.2-2.2s-2.2,.99-2.2,2.2,.99,2.2,2.2,2.2,2.2-.99,2.2-2.2Z" fill="#bbb9ba"/>
      <circle cx="2.2" cy="61.11" r="2.2" fill="#bbb9ba"/>
      <circle cx="2.2" cy="75.84" r="2.2" fill="#bbb9ba"/>
      <circle cx="14.08" cy="2.2" r="2.2" fill="#bbb9ba"/>
      <circle cx="14.08" cy="16.93" r="2.2" fill="#bbb9ba"/>
      <path d="M16.29,31.66c0-1.22-.99-2.2-2.2-2.2s-2.2,.99-2.2,2.2,.99,2.2,2.2,2.2,2.2-.99,2.2-2.2Z" fill="#bbb9ba"/>
      <path d="M16.29,46.38c0-1.22-.99-2.2-2.2-2.2s-2.2,.99-2.2,2.2,.99,2.2,2.2,2.2,2.2-.99,2.2-2.2Z" fill="#bbb9ba"/>
      <circle cx="14.08" cy="61.11" r="2.2" fill="#bbb9ba"/>
      <circle cx="14.08" cy="75.84" r="2.2" fill="#bbb9ba"/>
      <path d="M28.17,2.2c0-1.22-.99-2.2-2.2-2.2s-2.2,.99-2.2,2.2,.99,2.2,2.2,2.2,2.2-.99,2.2-2.2Z" fill="#bbb9ba"/>
      <path d="M28.17,16.93c0-1.22-.99-2.2-2.2-2.2s-2.2,.99-2.2,2.2,.99,2.2,2.2,2.2,2.2-.99,2.2-2.2Z" fill="#bbb9ba"/>
      <path d="M28.17,31.66c0-1.22-.99-2.2-2.2-2.2s-2.2,.99-2.2,2.2,.99,2.2,2.2,2.2,2.2-.99,2.2-2.2Z" fill="#bbb9ba"/>
      <path d="M28.17,46.38c0-1.22-.99-2.2-2.2-2.2s-2.2,.99-2.2,2.2,.99,2.2,2.2,2.2,2.2-.99,2.2-2.2Z" fill="#bbb9ba"/>
      <path d="M28.17,61.11c0-1.22-.99-2.2-2.2-2.2s-2.2,.99-2.2,2.2,.99,2.2,2.2,2.2,2.2-.99,2.2-2.2Z" fill="#bbb9ba"/>
      <path d="M28.17,75.84c0-1.22-.99-2.2-2.2-2.2s-2.2,.99-2.2,2.2,.99,2.2,2.2,2.2,2.2-.99,2.2-2.2Z" fill="#bbb9ba"/>
      <circle cx="37.85" cy="2.2" r="2.2" fill="#bbb9ba"/>
      <circle cx="37.85" cy="16.93" r="2.2" fill="#bbb9ba"/>
      <path d="M40.05,31.66c0-1.22-.99-2.2-2.2-2.2s-2.2,.99-2.2,2.2,.99,2.2,2.2,2.2,2.2-.99,2.2-2.2Z" fill="#bbb9ba"/>
      <path d="M40.05,46.38c0-1.22-.99-2.2-2.2-2.2s-2.2,.99-2.2,2.2,.99,2.2,2.2,2.2,2.2-.99,2.2-2.2Z" fill="#bbb9ba"/>
      <circle cx="37.85" cy="61.11" r="2.2" fill="#bbb9ba"/>
      <circle cx="37.85" cy="75.84" r="2.2" fill="#bbb9ba"/>
      <circle cx="49.73" cy="2.2" r="2.2" fill="#bbb9ba"/>
      <circle cx="49.73" cy="16.93" r="2.2" fill="#bbb9ba"/>
      <path d="M51.93,31.66c0-1.22-.99-2.2-2.2-2.2s-2.2,.99-2.2,2.2,.99,2.2,2.2,2.2,2.2-.99,2.2-2.2Z" fill="#bbb9ba"/>
      <path d="M51.93,46.38c0-1.22-.99-2.2-2.2-2.2s-2.2,.99-2.2,2.2,.99,2.2,2.2,2.2,2.2-.99,2.2-2.2Z" fill="#bbb9ba"/>
      <circle cx="49.73" cy="61.11" r="2.2" fill="#bbb9ba"/>
      <circle cx="49.73" cy="75.84" r="2.2" fill="#bbb9ba"/>
      <path d="M63.81,2.2c0-1.22-.99-2.2-2.2-2.2s-2.2,.99-2.2,2.2,.99,2.2,2.2,2.2,2.2-.99,2.2-2.2Z" fill="#bbb9ba"/>
      <path d="M63.81,16.93c0-1.22-.99-2.2-2.2-2.2s-2.2,.99-2.2,2.2,.99,2.2,2.2,2.2,2.2-.99,2.2-2.2Z" fill="#bbb9ba"/>
      <path d="M63.81,31.66c0-1.22-.99-2.2-2.2-2.2s-2.2,.99-2.2,2.2,.99,2.2,2.2,2.2,2.2-.99,2.2-2.2Z" fill="#bbb9ba"/>
      <path d="M63.81,46.38c0-1.22-.99-2.2-2.2-2.2s-2.2,.99-2.2,2.2,.99,2.2,2.2,2.2,2.2-.99,2.2-2.2Z" fill="#bbb9ba"/>
      <path d="M63.81,61.11c0-1.22-.99-2.2-2.2-2.2s-2.2,.99-2.2,2.2,.99,2.2,2.2,2.2,2.2-.99,2.2-2.2Z" fill="#bbb9ba"/>
      <path d="M63.81,75.84c0-1.22-.99-2.2-2.2-2.2s-2.2,.99-2.2,2.2,.99,2.2,2.2,2.2,2.2-.99,2.2-2.2Z" fill="#bbb9ba"/>
    </g>
  </g>
</svg>