<?xml version="1.0" encoding="UTF-8"?>
<svg id="Layer_2" data-name="Layer 2" xmlns="http://www.w3.org/2000/svg" viewBox="0 0 78.04 63.81">
  <g id="BACKGROUND">
    <g>
      <circle cx="2.2" cy="61.61" r="2.2"/>
      <circle cx="16.93" cy="61.61" r="2.2"/>
      <circle cx="31.66" cy="61.61" r="2.2"/>
      <path d="M46.38,59.41c-1.22,0-2.2,.99-2.2,2.2s.99,2.2,2.2,2.2,2.2-.99,2.2-2.2-.99-2.2-2.2-2.2Z"/>
      <path d="M61.11,59.41c-1.22,0-2.2,.99-2.2,2.2s.99,2.2,2.2,2.2,2.2-.99,2.2-2.2-.99-2.2-2.2-2.2Z"/>
      <circle cx="75.84" cy="61.61" r="2.2"/>
      <circle cx="2.2" cy="49.73" r="2.2"/>
      <circle cx="16.93" cy="49.73" r="2.2"/>
      <circle cx="31.66" cy="49.73" r="2.2"/>
      <path d="M46.38,47.53c-1.22,0-2.2,.99-2.2,2.2s.99,2.2,2.2,2.2,2.2-.99,2.2-2.2-.99-2.2-2.2-2.2Z"/>
      <path d="M61.11,47.53c-1.22,0-2.2,.99-2.2,2.2s.99,2.2,2.2,2.2,2.2-.99,2.2-2.2-.99-2.2-2.2-2.2Z"/>
      <circle cx="75.84" cy="49.73" r="2.2"/>
      <path d="M2.2,35.64c-1.22,0-2.2,.99-2.2,2.2s.99,2.2,2.2,2.2,2.2-.99,2.2-2.2-.99-2.2-2.2-2.2Z"/>
      <path d="M16.93,35.64c-1.22,0-2.2,.99-2.2,2.2s.99,2.2,2.2,2.2,2.2-.99,2.2-2.2-.99-2.2-2.2-2.2Z"/>
      <path d="M31.66,35.64c-1.22,0-2.2,.99-2.2,2.2s.99,2.2,2.2,2.2,2.2-.99,2.2-2.2-.99-2.2-2.2-2.2Z"/>
      <path d="M46.38,35.64c-1.22,0-2.2,.99-2.2,2.2s.99,2.2,2.2,2.2,2.2-.99,2.2-2.2-.99-2.2-2.2-2.2Z"/>
      <path d="M61.11,35.64c-1.22,0-2.2,.99-2.2,2.2s.99,2.2,2.2,2.2,2.2-.99,2.2-2.2-.99-2.2-2.2-2.2Z"/>
      <path d="M75.84,35.64c-1.22,0-2.2,.99-2.2,2.2s.99,2.2,2.2,2.2,2.2-.99,2.2-2.2-.99-2.2-2.2-2.2Z"/>
      <circle cx="2.2" cy="25.97" r="2.2"/>
      <circle cx="16.93" cy="25.97" r="2.2"/>
      <circle cx="31.66" cy="25.97" r="2.2"/>
      <path d="M46.38,23.76c-1.22,0-2.2,.99-2.2,2.2s.99,2.2,2.2,2.2,2.2-.99,2.2-2.2-.99-2.2-2.2-2.2Z"/>
      <path d="M61.11,23.76c-1.22,0-2.2,.99-2.2,2.2s.99,2.2,2.2,2.2,2.2-.99,2.2-2.2-.99-2.2-2.2-2.2Z"/>
      <circle cx="75.84" cy="25.97" r="2.2"/>
      <circle cx="2.2" cy="14.08" r="2.2"/>
      <circle cx="16.93" cy="14.08" r="2.2"/>
      <circle cx="31.66" cy="14.08" r="2.2"/>
      <path d="M46.38,11.88c-1.22,0-2.2,.99-2.2,2.2s.99,2.2,2.2,2.2,2.2-.99,2.2-2.2-.99-2.2-2.2-2.2Z"/>
      <path d="M61.11,11.88c-1.22,0-2.2,.99-2.2,2.2s.99,2.2,2.2,2.2,2.2-.99,2.2-2.2-.99-2.2-2.2-2.2Z"/>
      <circle cx="75.84" cy="14.08" r="2.2"/>
      <path d="M2.2,0C.99,0,0,.99,0,2.2s.99,2.2,2.2,2.2,2.2-.99,2.2-2.2S3.42,0,2.2,0Z"/>
      <path d="M16.93,0c-1.22,0-2.2,.99-2.2,2.2s.99,2.2,2.2,2.2,2.2-.99,2.2-2.2-.99-2.2-2.2-2.2Z"/>
      <path d="M31.66,0c-1.22,0-2.2,.99-2.2,2.2s.99,2.2,2.2,2.2,2.2-.99,2.2-2.2-.99-2.2-2.2-2.2Z"/>
      <path d="M46.38,0c-1.22,0-2.2,.99-2.2,2.2s.99,2.2,2.2,2.2,2.2-.99,2.2-2.2-.99-2.2-2.2-2.2Z"/>
      <path d="M61.11,0c-1.22,0-2.2,.99-2.2,2.2s.99,2.2,2.2,2.2,2.2-.99,2.2-2.2-.99-2.2-2.2-2.2Z"/>
      <path d="M75.84,0c-1.22,0-2.2,.99-2.2,2.2s.99,2.2,2.2,2.2,2.2-.99,2.2-2.2-.99-2.2-2.2-2.2Z"/>
    </g>
  </g>
</svg>