<?xml version="1.0" encoding="UTF-8"?>
<svg id="Layer_2" data-name="Layer 2" xmlns="http://www.w3.org/2000/svg" viewBox="0 0 91.74 85.14">
  <defs>
    <style>
      .cls-1 {
        fill: #fff;
      }

      .cls-2 {
        fill: #f54a4f;
      }

      .cls-3 {
        fill: #e58800;
      }

      .cls-4 {
        fill: #b8383b;
      }

      .cls-5 {
        fill: #6c747c;
      }

      .cls-6 {
        fill: #29a0ff;
      }

      .cls-7 {
        fill: #d3d7db;
      }

      .cls-8 {
        fill: #146cb3;
      }

      .cls-9 {
        fill: #3e4651;
      }

      .cls-10 {
        fill: #ffc436;
      }
    </style>
  </defs>
  <g id="Layer_2-2" data-name="Layer 2">
    <g>
      <path class="cls-10" d="M88.35,42.66c0,23.46-19.02,42.48-42.48,42.48S3.39,66.12,3.39,42.66,22.41,.18,45.87,.18s42.48,19.02,42.48,42.48Z"/>
      <g>
        <path class="cls-3" d="M87.69,50.51l4.05,.38-3.81-8.32-5.3,7.46,4.04,.38c-3.72,19.61-20.66,33.71-40.8,33.71-18.18,0-34.1-11.63-39.6-28.95-.09-.27-.37-.42-.64-.33-.22,.07-.36,.27-.36,.49,0,.05,0,.1,.02,.15,5.64,17.74,21.95,29.66,40.58,29.66,20.66,0,38.04-14.49,41.82-34.63Z"/>
        <path class="cls-3" d="M3.81,42.57l5.3-7.46-4.04-.38C8.79,15.12,25.73,1.02,45.87,1.02c18.99,0,35.54,12.83,40.25,31.19,.07,.27,.35,.44,.62,.37,.27-.07,.44-.35,.37-.62C82.28,13.14,65.32,0,45.87,0,25.21,0,7.83,14.49,4.05,34.63l-4.05-.38,3.81,8.32Z"/>
      </g>
      <circle class="cls-3" cx="45.87" cy="40.72" r="32.22"/>
      <path class="cls-3" d="M33.56,18.64l1.61-.52-.34-1.95-1.69,.06c-.22-.56-.52-1.07-.89-1.54l.9-1.43-1.52-1.27-1.25,1.13c-.52-.28-1.08-.49-1.67-.61l-.23-1.67h-1.98l-.23,1.67c-.59,.12-1.15,.33-1.67,.61l-1.25-1.13-1.52,1.27,.9,1.43c-.37,.46-.67,.98-.89,1.54l-1.68-.06-.34,1.95,1.61,.52c.02,.61,.12,1.2,.31,1.75l-1.33,1.03,.99,1.72,1.56-.64c.39,.44,.85,.83,1.36,1.14l-.36,1.65,1.86,.68,.78-1.49c.29,.04,.59,.07,.89,.07s.6-.02,.89-.07l.79,1.49,1.86-.68-.36-1.65c.51-.31,.96-.7,1.36-1.14l1.56,.64,.99-1.72-1.33-1.03c.19-.55,.29-1.14,.31-1.75Zm-6.07,2.9c-1.69,0-3.07-1.38-3.07-3.07s1.38-3.07,3.07-3.07,3.07,1.38,3.07,3.07-1.38,3.07-3.07,3.07Z"/>
      <path class="cls-10" d="M65,21.97l.73-.24-.16-.89-.77,.03c-.1-.25-.24-.49-.41-.7l.41-.65-.69-.58-.57,.52c-.24-.13-.49-.22-.76-.28l-.1-.76h-.9l-.1,.76c-.27,.05-.53,.15-.76,.28l-.57-.52-.69,.58,.41,.65c-.17,.21-.3,.45-.41,.7l-.77-.03-.16,.89,.73,.24c0,.28,.06,.55,.14,.8l-.61,.47,.45,.78,.71-.29c.18,.2,.39,.38,.62,.52l-.16,.75,.85,.31,.36-.68c.13,.02,.27,.03,.41,.03s.27-.01,.41-.03l.36,.68,.85-.31-.16-.75c.23-.14,.44-.32,.62-.52l.71,.29,.45-.78-.61-.47c.08-.25,.13-.52,.14-.8Zm-2.77,1.32c-.77,0-1.4-.63-1.4-1.4s.63-1.4,1.4-1.4,1.4,.63,1.4,1.4-.63,1.4-1.4,1.4Z"/>
      <path class="cls-3" d="M77.47,56.42l1.05-.34-.23-1.28-1.11,.04c-.14-.37-.34-.71-.58-1.01l.59-.94-1-.84-.82,.74c-.34-.18-.71-.32-1.1-.4l-.15-1.1h-1.3l-.15,1.1c-.39,.08-.76,.22-1.1,.4l-.82-.74-1,.84,.59,.94c-.24,.3-.44,.64-.58,1.01l-1.11-.04-.23,1.28,1.06,.34c.01,.4,.08,.79,.2,1.15l-.88,.68,.65,1.13,1.03-.42c.26,.29,.56,.55,.89,.75l-.23,1.08,1.22,.45,.52-.98c.19,.03,.39,.04,.58,.04s.39-.01,.58-.04l.52,.98,1.22-.45-.23-1.08c.33-.21,.63-.46,.89-.75l1.03,.42,.65-1.13-.88-.68c.12-.36,.19-.75,.2-1.15Zm-3.99,1.91c-1.11,0-2.02-.91-2.02-2.02s.91-2.02,2.02-2.02,2.02,.91,2.02,2.02-.91,2.02-2.02,2.02Z"/>
      <g>
        <path class="cls-9" d="M51.23,3.51h-11.37c-1.26,0-2.28,1.02-2.28,2.28V31.04c0,1.26,1.02,2.28,2.28,2.28h11.37c1.26,0,2.28-1.02,2.28-2.28V5.79c0-1.26-1.02-2.28-2.28-2.28Zm1.33,10.85V30.63h-13.97V6.2h13.97V14.36Z"/>
        <path class="cls-1" d="M38.59,22.47l3.6-2.09h-2.5v-1.96h5.89l3.35-1.95h-9.24v-1.96h11.48v.66l1.39-.81V6.2h-13.97V22.47Zm1.1-14.9h11.48v4.97h-11.48V7.57Z"/>
        <path class="cls-7" d="M51.17,16.47h-2.24l-3.35,1.95h5.59v1.96h-8.98l-3.6,2.09v8.15h13.97V14.36l-1.39,.81v1.3Zm0,11.77h-11.48v-1.97h11.48v1.97Zm0-3.93h-11.48v-1.96h11.48v1.96Z"/>
        <rect class="cls-2" x="39.69" y="7.57" width="11.48" height="4.97"/>
        <polygon class="cls-10" points="51.17 14.5 39.69 14.5 39.69 16.47 48.93 16.47 51.17 15.17 51.17 14.5"/>
        <polygon class="cls-3" points="51.17 15.17 48.93 16.47 51.17 16.47 51.17 15.17"/>
        <polygon class="cls-6" points="39.69 18.42 39.69 20.38 42.2 20.38 45.58 18.42 39.69 18.42"/>
        <polygon class="cls-8" points="51.17 18.42 45.58 18.42 42.2 20.38 51.17 20.38 51.17 18.42"/>
        <rect class="cls-8" x="39.69" y="22.35" width="11.48" height="1.96"/>
        <rect class="cls-8" x="39.69" y="26.28" width="11.48" height="1.97"/>
      </g>
      <g>
        <path class="cls-9" d="M62.8,45.82H28.3c-1.35,0-2.45,1.09-2.45,2.44v24.92c0,1.35,1.09,2.44,2.45,2.44H62.8c1.35,0,2.44-1.09,2.44-2.44v-24.92c0-1.35-1.09-2.44-2.44-2.44Zm.68,4.53v22.59H27.74v-24.42H63.48v1.83Z"/>
        <polygon class="cls-1" points="27.74 71.1 29.14 70.29 29.14 68.51 32.2 68.51 35.65 66.51 29.14 66.51 29.14 64.54 39.03 64.54 42.34 62.62 29.14 62.62 29.14 60.66 44.72 60.66 44.72 61.24 48.96 58.78 29.14 58.78 29.14 56.81 52.34 56.81 55.72 54.85 29.14 54.85 29.14 49.88 62.1 49.88 62.1 51.14 63.48 50.34 63.48 48.51 27.74 48.51 27.74 71.1"/>
        <path class="cls-7" d="M62.1,54.85h-6.37l-3.38,1.97h9.76v1.96h-13.14l-4.23,2.46v1.38h-2.38l-3.31,1.92h5.69v1.97h-9.07l-3.45,2h12.53v1.96h-15.59v-.19l-1.4,.81v1.83H63.48v-22.59l-1.38,.8v3.7Zm0,15.63h-15.59v-5.94h15.59v5.94Zm0-7.86h-15.59v-1.97h15.59v1.97Z"/>
        <polygon class="cls-2" points="62.1 49.88 29.14 49.88 29.14 54.85 55.72 54.85 62.1 51.14 62.1 49.88"/>
        <polygon class="cls-4" points="62.1 51.14 55.72 54.85 62.1 54.85 62.1 51.14"/>
        <polygon class="cls-10" points="29.14 56.81 29.14 58.78 48.96 58.78 52.34 56.81 29.14 56.81"/>
        <polygon class="cls-3" points="62.1 56.81 52.34 56.81 48.96 58.78 62.1 58.78 62.1 56.81"/>
        <polygon class="cls-6" points="44.72 60.66 29.14 60.66 29.14 62.62 42.34 62.62 44.72 61.24 44.72 60.66"/>
        <polygon class="cls-8" points="44.72 61.24 42.34 62.62 44.72 62.62 44.72 61.24"/>
        <rect class="cls-8" x="46.51" y="60.66" width="15.59" height="1.97"/>
        <polygon class="cls-6" points="29.14 64.54 29.14 66.51 35.65 66.51 39.03 64.54 29.14 64.54"/>
        <polygon class="cls-8" points="44.72 64.54 39.03 64.54 35.65 66.51 44.72 66.51 44.72 64.54"/>
        <rect class="cls-8" x="46.51" y="64.54" width="15.59" height="5.94"/>
        <polygon class="cls-6" points="29.14 68.51 29.14 70.29 32.2 68.51 29.14 68.51"/>
        <polygon class="cls-8" points="44.72 70.48 44.72 68.51 32.2 68.51 29.14 70.29 29.14 70.48 44.72 70.48"/>
      </g>
      <g>
        <polygon class="cls-9" points="27.49 31.86 25 29.38 23.8 29.38 23.8 35.88 27.49 35.88 27.49 31.86"/>
        <polygon class="cls-9" points="66.83 29.38 65.63 29.38 63.14 31.86 63.14 35.88 66.83 35.88 66.83 29.38"/>
        <polygon class="cls-9" points="16.58 47.45 22.19 62.26 22.19 46.9 23.8 46.9 23.8 43.68 16.58 43.68 16.58 47.45"/>
        <path class="cls-9" d="M70.44,44.82c-1.2,0-2.29-.44-3.16-1.14h-.45v3.22h1.61v15.36l5.61-14.81v-3.77h-.45c-.87,.7-1.95,1.14-3.16,1.14Z"/>
        <path d="M23.8,40.74v-1.91h41.69c.13-.68,.39-1.3,.76-1.86H17.67v5.62h48.58c-.37-.55-.63-1.18-.76-1.86H23.8Zm-3.61,.6c-.86,0-1.55-.7-1.55-1.55s.7-1.55,1.55-1.55,1.55,.7,1.55,1.55-.7,1.55-1.55,1.55Z"/>
        <path d="M74.62,42.59h9.48c.91,0,1.66-.74,1.66-1.66v-2.3c0-.91-.74-1.66-1.66-1.66h-9.48c.54,.8,.86,1.77,.86,2.81s-.32,2.01-.86,2.81Z"/>
        <path class="cls-9" d="M84.1,35.88h-10.51c.39,.32,.74,.67,1.03,1.09h9.48c.91,0,1.66,.74,1.66,1.66v2.3c0,.91-.74,1.66-1.66,1.66h-9.48c-.28,.42-.64,.77-1.03,1.09h10.51c1.52,0,2.75-1.23,2.75-2.75v-2.3c0-1.52-1.23-2.75-2.75-2.75Z"/>
        <path class="cls-9" d="M66.26,42.59H17.67v-5.62h48.58c.28-.42,.64-.77,1.03-1.09H16.58v7.79h50.7c-.39-.32-.74-.67-1.03-1.09Z"/>
        <path class="cls-5" d="M20.19,38.23c-.86,0-1.55,.7-1.55,1.55s.7,1.55,1.55,1.55,1.55-.7,1.55-1.55-.7-1.55-1.55-1.55Z"/>
        <circle cx="70.44" cy="39.78" r="3.95"/>
        <path class="cls-5" d="M66.26,36.97c-.37,.55-.63,1.18-.76,1.86h.36v1.91h-.36c.13,.68,.39,1.3,.76,1.86,.28,.42,.64,.77,1.03,1.09,.87,.7,1.95,1.14,3.16,1.14s2.29-.44,3.16-1.14c.39-.32,.74-.67,1.03-1.09,.54-.8,.86-1.77,.86-2.81s-.32-2.01-.86-2.81c-.28-.42-.64-.77-1.03-1.09-.87-.7-1.95-1.14-3.16-1.14s-2.29,.44-3.16,1.14c-.39,.32-.74,.67-1.03,1.09Zm8.13,2.81c0,2.18-1.77,3.95-3.95,3.95s-3.95-1.77-3.95-3.95,1.77-3.95,3.95-3.95,3.95,1.77,3.95,3.95Z"/>
        <polygon class="cls-5" points="23.8 38.83 23.8 39.08 23.8 40.74 65.5 40.74 65.86 40.74 65.86 38.83 65.5 38.83 23.8 38.83"/>
        <rect class="cls-5" x="22.19" y="46.9" width="1.61" height="15.36"/>
        <rect class="cls-5" x="66.83" y="46.9" width="1.61" height="15.36"/>
      </g>
    </g>
  </g>
</svg>