<?xml version="1.0" encoding="UTF-8"?>
<svg id="Layer_2" data-name="Layer 2" xmlns="http://www.w3.org/2000/svg" viewBox="0 0 91.74 104.39">
  <defs>
    <style>
      .cls-1 {
        fill: #c3e5f9;
      }

      .cls-2 {
        fill: #ffac00;
      }

      .cls-3 {
        fill: #53427d;
      }

      .cls-4 {
        fill: #ffcb3a;
      }

      .cls-5 {
        fill: #ff373c;
      }

      .cls-6 {
        fill: #8e325d;
      }

      .cls-7 {
        fill: #ff7455;
      }

      .cls-8 {
        fill: #3e2d5a;
      }

      .cls-9 {
        fill: #cd385f;
      }
    </style>
  </defs>
  <g id="Layer_2-2" data-name="Layer 2">
    <g>
      <circle class="cls-1" cx="42.62" cy="61.77" r="42.62" transform="translate(-25.68 92.85) rotate(-79.86)"/>
      <polygon class="cls-2" points="47.91 42.61 31.03 44.71 35.16 28.2 27.95 12.79 44.93 11.62 57.36 0 63.71 15.79 78.61 24.02 65.56 34.94 62.33 51.65 47.91 42.61"/>
      <polygon class="cls-4" points="81.38 53.1 74.97 55.38 75.16 48.58 71.01 43.19 77.53 41.27 81.38 35.66 85.22 41.27 91.74 43.19 87.59 48.58 87.78 55.38 81.38 53.1"/>
      <polygon class="cls-2" points="67.41 57.91 70.27 56.89 70.19 59.93 72.04 62.34 69.13 63.2 67.41 65.71 65.69 63.2 62.77 62.34 64.62 59.93 64.54 56.89 67.41 57.91"/>
      <path class="cls-3" d="M50.35,33.4h-15.46c1.84,4.16,4.55,11.73,4.55,21.53s-2.71,17.37-4.55,21.53h15.46c-1.84-4.16-4.55-11.73-4.55-21.53s2.71-17.37,4.55-21.53Z"/>
      <path class="cls-8" d="M41.25,33.4h-6.36c1.74,3.93,4.25,10.89,4.52,19.91,2.2-2.1,4.49-3.63,6.77-4.73,.81-6.73,2.74-11.97,4.17-15.18h-9.1Z"/>
      <g>
        <rect class="cls-5" x="53.43" y="72.59" width="11.05" height="3.93"/>
        <rect class="cls-6" x="53.43" y="72.59" width="3.4" height="3.93"/>
      </g>
      <rect class="cls-8" x="14.58" y="77.03" width="56.09" height="21.18"/>
      <rect class="cls-8" x="17.9" y="75.11" width="49.44" height="13.61"/>
      <rect class="cls-3" x="14.58" y="77.03" width="23.74" height="21.18"/>
      <g>
        <circle class="cls-5" cx="42.62" cy="29.48" r="14.19" transform="translate(-7.96 18.23) rotate(-22.13)"/>
        <path class="cls-9" d="M42.62,43.66c6.49,0,11.96-4.36,13.64-10.3-11.91,7.45-19.38-7.31-26.08-10.72-1.12,2.03-1.76,4.36-1.76,6.84,0,7.84,6.35,14.19,14.19,14.19Z"/>
        <path class="cls-7" d="M52.39,26.79c-1.62,1.88-5.09,1.55-7.76-.74-2.66-2.29-3.51-5.68-1.89-7.56,1.62-1.88,5.09-1.55,7.76,.74,2.66,2.29,3.51,5.68,1.89,7.56Z"/>
      </g>
    </g>
  </g>
</svg>