<?xml version="1.0" encoding="UTF-8"?>
<svg id="Layer_2" data-name="Layer 2" xmlns="http://www.w3.org/2000/svg" viewBox="0 0 84.96 84.96">
  <defs>
    <style>
      .cls-1 {
        fill: #fff;
      }

      .cls-2 {
        fill: #a6aeb7;
      }

      .cls-3 {
        fill: #cc9185;
      }

      .cls-4 {
        fill: #29a0ff;
      }

      .cls-5 {
        fill: #d3d7db;
      }

      .cls-6 {
        fill: #eaaf9b;
      }

      .cls-7 {
        fill: #bcc2c9;
      }

      .cls-8 {
        fill: #146cb3;
      }

      .cls-9 {
        fill: #3e4651;
      }

      .cls-10 {
        fill: #ffc436;
      }
    </style>
  </defs>
  <g id="Layer_2-2" data-name="Layer 2">
    <g>
      <path class="cls-4" d="M84.96,42.48c0,23.46-19.02,42.48-42.48,42.48S0,65.94,0,42.48,19.02,0,42.48,0s42.48,19.02,42.48,42.48Z"/>
      <rect class="cls-8" x="4.67" y="29.02" width="20.91" height="1.19"/>
      <rect class="cls-8" x="67.78" y="29.68" width="10.45" height="1.19"/>
      <rect class="cls-8" x="53.15" y="20.09" width="20.91" height="1.19"/>
      <rect class="cls-8" x="26.41" y="70.96" width="20.91" height="1.19"/>
      <rect class="cls-8" x="42.68" y="67.61" width="15.09" height="1.19"/>
      <rect class="cls-8" x="35.14" y="75.3" width="15.09" height="1.19"/>
      <rect class="cls-8" x="34.62" y="64.33" width="6.23" height="1.19"/>
      <rect class="cls-8" x="54.92" y="26.37" width="20.91" height="1.19"/>
      <rect class="cls-8" x="7.87" y="24.93" width="20.91" height="1.19"/>
      <rect class="cls-8" x="34.55" y="3.25" width="16.21" height="1.19"/>
      <g>
        <g>
          <path class="cls-1" d="M11.28,11.24h61.19v23.92c0,2.79-2.26,5.05-5.05,5.05H16.33c-2.79,0-5.05-2.26-5.05-5.05V11.24h0Z"/>
          <path class="cls-10" d="M13.48,6.55h56.77c1.22,0,2.21,.99,2.21,2.21v2.48H11.28v-2.48c0-1.22,.99-2.21,2.21-2.21Z"/>
        </g>
        <path d="M68.73,8.89c0,.47,.38,.85,.85,.85s.85-.38,.85-.85-.38-.85-.85-.85-.85,.38-.85,.85Z"/>
        <path d="M65.31,8.89c0,.47,.38,.85,.85,.85s.85-.38,.85-.85-.38-.85-.85-.85-.85,.38-.85,.85Z"/>
        <path d="M61.9,8.89c0,.47,.38,.85,.85,.85s.85-.38,.85-.85-.38-.85-.85-.85-.85,.38-.85,.85Z"/>
      </g>
      <rect class="cls-5" x="15.13" y="20.28" width="20.33" height="1.27"/>
      <rect class="cls-5" x="15.13" y="22.82" width="20.33" height="1.27"/>
      <rect class="cls-5" x="15.13" y="25.36" width="20.33" height="1.27"/>
      <rect class="cls-5" x="48.29" y="20.28" width="20.33" height="1.27"/>
      <rect class="cls-5" x="48.29" y="22.82" width="20.33" height="1.27"/>
      <rect class="cls-5" x="48.29" y="25.36" width="20.33" height="1.27"/>
      <rect class="cls-5" x="15.13" y="27.9" width="20.33" height="1.27"/>
      <rect class="cls-5" x="15.13" y="30.43" width="20.33" height="1.27"/>
      <rect class="cls-5" x="48.29" y="27.9" width="20.33" height="1.27"/>
      <rect class="cls-5" x="48.29" y="30.43" width="20.33" height="1.27"/>
      <g>
        <path class="cls-8" d="M42.52,22.84c0-.36-.29-.65-.65-.65H21.51c-.08,0-.17,.02-.25,.05-.08,.03-.15,.08-.21,.14l-2.89,2.89c-.06,.06-.11,.13-.14,.21-.03,.08-.05,.16-.05,.24,0,0,0,0,0,0v7.27c0,.36,.29,.65,.65,.65s.65-.29,.65-.65v-7l2.51-2.51h18.9c-.16,0-.31,.07-.43,.19l-9.84,9.84c-.25,.25-.25,.66,0,.92,.13,.13,.29,.19,.46,.19s.33-.06,.46-.19l9.84-9.84s.03-.05,.05-.08v9.46c0,.36,.29,.65,.65,.65s.65-.29,.65-.65v-9.53c0-.36-.29-.65-.65-.65-.22,0-.41,.12-.53,.29-.01-.15-.07-.29-.18-.4-.12-.12-.28-.18-.43-.19h1.14c.36,0,.65-.29,.65-.65Z"/>
        <path class="cls-8" d="M51.37,27.4h-3.55l-3.9-3.9c-.25-.25-.67-.25-.92,0s-.25,.67,0,.92l4.09,4.09c.06,.06,.13,.11,.21,.14,.08,.03,.16,.05,.25,.05h3.17v5.61c0,.36,.29,.65,.65,.65s.65-.29,.65-.65v-6.26c0-.36-.29-.65-.65-.65Z"/>
        <path class="cls-8" d="M71.15,34.4l-12.77-12.77c-.06-.06-.13-.11-.21-.14-.08-.03-.16-.05-.25-.05h-14.72c-.36,0-.65,.29-.65,.65s.29,.65,.65,.65h7.49l5.65,5.65v5.58c0,.36,.29,.65,.65,.65s.65-.29,.65-.65v-5.85c0-.08-.02-.17-.05-.25-.03-.08-.08-.15-.14-.21l-4.92-4.92h5.12l12.58,12.58c.13,.13,.29,.19,.46,.19s.33-.06,.46-.19c.25-.25,.25-.67,0-.92Z"/>
      </g>
      <rect class="cls-5" x="15.13" y="12.7" width="53.49" height="1.27"/>
      <rect class="cls-5" x="15.13" y="15.24" width="53.49" height="1.27"/>
      <rect class="cls-5" x="15.13" y="17.77" width="53.49" height="1.27"/>
      <g>
        <path class="cls-1" d="M41.87,16.05c-3.74,0-6.78,3.04-6.78,6.78s3.04,6.78,6.78,6.78,6.78-3.04,6.78-6.78-3.04-6.78-6.78-6.78Z"/>
        <path class="cls-4" d="M41.87,15.05c-4.29,0-7.78,3.49-7.78,7.78s3.49,7.78,7.78,7.78,7.78-3.49,7.78-7.78-3.49-7.78-7.78-7.78Zm0,14.56c-3.74,0-6.78-3.04-6.78-6.78s3.04-6.78,6.78-6.78,6.78,3.04,6.78,6.78-3.04,6.78-6.78,6.78Z"/>
      </g>
      <circle cx="41.87" cy="22.84" r="3.14"/>
      <g>
        <path class="cls-2" d="M80.3,61.78c-.07,.14-.14,.28-.21,.42h.21v-.42Z"/>
        <path class="cls-5" d="M3.44,62.19h1.43c-.51-.97-.99-1.97-1.43-2.98v2.98Z"/>
        <path class="cls-6" d="M13.19,73.21v.13c0,.26,.02,.53,.04,.79h.94c-.33-.3-.66-.61-.98-.92Z"/>
        <rect class="cls-2" x="23.13" y="60.31" width="1.24" height="1.88"/>
        <rect class="cls-2" x="62.89" y="60.31" width="1.24" height="1.88"/>
        <rect class="cls-2" x="62.89" y="53.49" width="1.24" height="2.27"/>
        <rect class="cls-2" x="19.4" y="60.31" width="1.24" height="1.88"/>
        <rect class="cls-2" x="26.86" y="60.31" width="1.24" height="1.88"/>
        <path class="cls-2" d="M66.87,51.56l-.47-.47c.13,.19,.22,.41,.22,.66v10.43h1.24v-1.88h-.99v-4.54h.99v-2.27h-.99v-1.93Z"/>
        <path class="cls-5" d="M60.05,52.21v-.05l-1.18-1.18s.07,.09,.1,.14l1.09,1.09Z"/>
        <path class="cls-5" d="M66.87,51.56v-.03l-.53-.53s.04,.06,.06,.1l.47,.47Z"/>
        <path class="cls-2" d="M60.05,52.21l-1.09-1.09c.11,.19,.2,.4,.2,.63v10.43h1.24v-1.88h-.36v-4.54h.36v-2.27h-.36v-1.28Z"/>
        <path class="cls-2" d="M80.3,61.22l-2.07-2.07v1.17h-4.54v-4.54h1.17l-3.44-3.44v1.17h-1.07v2.27h1.07v4.54h-1.07v1.88h9.74c.07-.14,.14-.28,.21-.42v-.56Z"/>
        <path class="cls-5" d="M13.19,60.31h-.86v-4.54h.86v-2.27H5.51v-4.54h11.36v3.56l.04,.04v-.79c0-.69,.56-1.24,1.24-1.24,.41,0,.76,.22,.99,.53v-2.09h4.54v2.88l.68,.68v-.75c0-.69,.56-1.24,1.24-1.24,.12,0,.24,.04,.35,.07v-1.64h4.54v4.54h-1.46l2.27,2.27h12.82v4.54h-8.27l1.88,1.88h15.2v-6.43c.1,0,.19,.02,.28,.03v-.03h3.44v-2.27h-3.44v-4.54h4.54v1.6s.09-.03,.14-.03c.39,0,.72,.19,.95,.47l1.18,1.18v-3.22h4.54v1.86c.21-.18,.48-.3,.78-.3,.4,0,.73,.2,.96,.49l.53,.53v-2.58h4.54v3.38l3.44,3.44h3.38v3.38l2.07,2.07v-28.22H3.44v26.21c.44,1.02,.91,2.01,1.43,2.98H13.19v-1.88Zm60.5-25h4.54v4.54h-4.54v-4.54Zm0,6.82h4.54v11.36h-4.54v-11.36Zm-6.82-6.82h4.54v4.54h-4.54v-4.54Zm0,6.82h4.54v4.54h-4.54v-4.54Zm-6.82-6.82h4.54v4.54h-4.54v-4.54Zm0,6.82h4.54v4.54h-4.54v-4.54Zm-6.82-6.82h4.54v4.54h-4.54v-4.54Zm0,6.82h4.54v4.54h-4.54v-4.54Zm-6.82-6.82h4.54v4.54h-4.54v-4.54Zm0,6.82h4.54v4.54h-4.54v-4.54Zm0,6.82h4.54v4.54h-4.54v-4.54Zm0,6.82h4.54v4.54h-4.54v-4.54Zm-6.82-20.45h4.54v4.54h-4.54v-4.54Zm0,6.82h4.54v4.54h-4.54v-4.54Zm0,6.82h4.54v4.54h-4.54v-4.54Zm-6.82-13.63h4.54v4.54h-4.54v-4.54Zm0,6.82h4.54v4.54h-4.54v-4.54Zm0,6.82h4.54v4.54h-4.54v-4.54Zm-6.82-13.63h4.54v4.54h-4.54v-4.54Zm0,6.82h4.54v4.54h-4.54v-4.54Zm-6.82-6.82h4.54v4.54h-4.54v-4.54Zm0,6.82h4.54v4.54h-4.54v-4.54Zm-6.82-6.82h4.54v4.54h-4.54v-4.54Zm0,6.82h4.54v4.54h-4.54v-4.54Zm-6.82-6.82h4.54v4.54H5.51v-4.54Zm0,6.82h4.54v4.54H5.51v-4.54Zm4.54,18.18H5.51v-4.54h4.54v4.54Z"/>
        <polygon class="cls-2" points="23.69 53.49 23.13 53.49 23.13 55.76 24.37 55.76 24.37 52.51 23.69 51.83 23.69 53.49"/>
        <polygon class="cls-2" points="16.87 53.49 15.67 53.49 15.67 55.76 16.87 55.76 16.87 60.31 15.67 60.31 15.67 62.19 16.92 62.19 16.92 52.54 16.87 52.5 16.87 53.49"/>
        <polygon class="cls-2" points="29.05 53.49 26.86 53.49 26.86 55.76 30.58 55.76 31.32 55.76 29.05 53.49"/>
        <polygon class="cls-2" points="30.58 60.31 30.58 62.19 37.75 62.19 35.87 60.31 30.58 60.31"/>
        <rect class="cls-2" x="19.4" y="53.49" width="1.24" height="2.27"/>
        <rect class="cls-2" x="55.43" y="60.31" width="1.24" height="1.88"/>
        <rect class="cls-1" x="5.51" y="35.31" width="4.54" height="4.54"/>
        <rect class="cls-1" x="12.33" y="35.31" width="4.54" height="4.54"/>
        <rect class="cls-1" x="19.15" y="35.31" width="4.54" height="4.54"/>
        <rect class="cls-1" x="25.96" y="35.31" width="4.54" height="4.54"/>
        <rect class="cls-1" x="32.78" y="35.31" width="4.54" height="4.54"/>
        <rect class="cls-1" x="39.6" y="35.31" width="4.54" height="4.54"/>
        <rect class="cls-1" x="46.42" y="35.31" width="4.54" height="4.54"/>
        <rect class="cls-1" x="53.23" y="35.31" width="4.54" height="4.54"/>
        <rect class="cls-1" x="60.05" y="35.31" width="4.54" height="4.54"/>
        <rect class="cls-1" x="66.87" y="35.31" width="4.54" height="4.54"/>
        <rect class="cls-1" x="73.68" y="35.31" width="4.54" height="4.54"/>
        <rect class="cls-1" x="5.51" y="42.13" width="4.54" height="4.54"/>
        <rect class="cls-1" x="12.33" y="42.13" width="4.54" height="4.54"/>
        <rect class="cls-1" x="19.15" y="42.13" width="4.54" height="4.54"/>
        <rect class="cls-1" x="25.96" y="42.13" width="4.54" height="4.54"/>
        <rect class="cls-1" x="32.78" y="42.13" width="4.54" height="4.54"/>
        <rect class="cls-1" x="39.6" y="42.13" width="4.54" height="4.54"/>
        <rect class="cls-1" x="46.42" y="42.13" width="4.54" height="4.54"/>
        <rect class="cls-1" x="53.23" y="42.13" width="4.54" height="4.54"/>
        <rect class="cls-1" x="60.05" y="42.13" width="4.54" height="4.54"/>
        <rect class="cls-1" x="66.87" y="42.13" width="4.54" height="4.54"/>
        <rect class="cls-1" x="73.68" y="42.13" width="4.54" height="11.36"/>
        <path class="cls-1" d="M16.87,48.95H5.51v4.54h7.67v-1.73c0-.69,.56-1.24,1.24-1.24,.42,0,.78,.22,1,.54l1.44,1.44v-3.56Z"/>
        <path class="cls-7" d="M16.87,52.5l-1.44-1.44c.14,.2,.24,.43,.24,.7v1.73h1.2v-.99Z"/>
        <path class="cls-7" d="M23.69,51.83l-.87-.87c.19,.22,.31,.49,.31,.8v1.73h.56v-1.66Z"/>
        <path class="cls-1" d="M23.69,48.95h-4.54v2.09s.02,.04,.03,.06l1.46,1.46v-.81c0-.69,.56-1.24,1.24-1.24,.38,0,.71,.18,.93,.44l-.13-.13,.13,.13,.87,.87v-2.88Z"/>
        <path class="cls-7" d="M19.4,51.76v1.73h1.24v-.93l-1.46-1.46c.13,.19,.22,.41,.22,.66Z"/>
        <path class="cls-7" d="M26.63,51.07c.14,.19,.22,.42,.22,.68v1.73h2.19l-2.42-2.42Z"/>
        <path class="cls-1" d="M30.51,53.49v-4.54h-4.54v1.64c.28,.08,.51,.26,.67,.49l2.42,2.42h1.46Z"/>
        <rect class="cls-1" x="32.78" y="48.95" width="4.54" height="4.54"/>
        <rect class="cls-1" x="39.6" y="48.95" width="4.54" height="4.54"/>
        <rect class="cls-1" x="46.42" y="48.95" width="4.54" height="4.54"/>
        <path class="cls-1" d="M57.78,50.54v-1.6h-4.54v4.54h3.44v-1.73c0-.64,.48-1.14,1.1-1.21Z"/>
        <path class="cls-7" d="M62.89,51.76v1.73h1.24v-.92l-1.43-1.43c.11,.18,.19,.39,.19,.62Z"/>
        <path class="cls-1" d="M62.7,51.14l1.43,1.43v-.02l-1.46-1.46s.02,.03,.03,.05Z"/>
        <path class="cls-1" d="M60.41,51.76c0-.69,.56-1.24,1.24-1.24,.44,0,.8,.24,1.02,.58l1.46,1.46v-.8c0-.39,.19-.72,.46-.94v-1.86h-4.54v3.22l.36,.35v-.76Z"/>
        <polygon class="cls-1" points="60.41 52.57 60.41 52.52 60.05 52.16 60.05 52.21 60.41 52.57"/>
        <polygon class="cls-7" points="60.05 53.49 60.41 53.49 60.41 52.57 60.05 52.21 60.05 53.49"/>
        <path class="cls-1" d="M66.87,48.95v2.58l.99,.99v-.77c0-.69,.56-1.24,1.24-1.24,.37,0,.69,.17,.92,.42l1.39,1.39v-3.38h-4.54Z"/>
        <path class="cls-7" d="M70.35,51.76v1.73h1.07v-1.17l-1.39-1.39c.2,.22,.33,.5,.33,.82Z"/>
        <polygon class="cls-7" points="66.87 53.49 67.86 53.49 67.86 52.56 66.87 51.56 66.87 53.49"/>
        <polygon class="cls-1" points="67.86 52.56 67.86 52.52 66.87 51.53 66.87 51.56 67.86 52.56"/>
        <rect class="cls-1" x="5.51" y="55.76" width="4.54" height="4.54"/>
        <rect class="cls-1" x="12.33" y="55.76" width=".86" height="4.54"/>
        <rect class="cls-7" x="15.67" y="55.76" width="1.2" height="4.54"/>
        <rect class="cls-7" x="23.13" y="55.76" width="1.24" height="4.54"/>
        <polygon class="cls-1" points="44.14 60.31 44.14 55.76 31.32 55.76 35.87 60.31 44.14 60.31"/>
        <polygon class="cls-7" points="31.32 55.76 30.58 55.76 30.58 60.31 35.87 60.31 31.32 55.76"/>
        <path class="cls-7" d="M26.86,60.31h1.24v-2.06c0-1.37,1.11-2.49,2.49-2.49h-3.73v4.54Z"/>
        <rect class="cls-7" x="19.4" y="55.76" width="1.24" height="4.54"/>
        <rect class="cls-1" x="46.42" y="55.76" width="4.54" height="4.54"/>
        <path class="cls-1" d="M54.96,56.81l1.72,1.72v-.03l-1.82-1.82s.07,.09,.11,.14Z"/>
        <path class="cls-1" d="M56.68,58.49v-2.73h-3.44v.03c.65,.07,1.22,.4,1.62,.88l1.82,1.82Z"/>
        <path class="cls-7" d="M55.43,58.25v2.06h1.24v-1.78l-1.72-1.72c.29,.41,.48,.9,.48,1.44Z"/>
        <rect class="cls-7" x="62.89" y="55.76" width="1.24" height="4.54"/>
        <rect class="cls-7" x="60.05" y="55.76" width=".36" height="4.54"/>
        <rect class="cls-7" x="66.87" y="55.76" width=".99" height="4.54"/>
        <rect class="cls-7" x="70.35" y="55.76" width="1.07" height="4.54"/>
        <polygon class="cls-1" points="74.85 55.76 78.23 59.14 78.23 55.76 74.85 55.76"/>
        <polygon class="cls-7" points="73.68 55.76 73.68 60.31 78.23 60.31 78.23 59.14 74.85 55.76 73.68 55.76"/>
        <path class="cls-6" d="M20.85,74.12h7.22c.01-.18,.03-.35,.03-.53,0-.81,.32-1.58,.89-2.16l.97-.97c.4-.4,.62-.94,.62-1.5v-13.2c-1.37,0-2.49,1.11-2.49,2.49v5.56h-1.24v-12.05c0-.26-.09-.49-.22-.68-.16-.23-.39-.41-.67-.49-.11-.03-.23-.07-.35-.07-.69,0-1.24,.56-1.24,1.24v10.43h-1.24v-10.43c0-.31-.12-.58-.31-.8-.23-.27-.55-.44-.93-.44-.69,0-1.24,.56-1.24,1.24v10.43h-1.24v-10.43c0-.25-.09-.47-.22-.66-.01-.02-.02-.04-.03-.06-.23-.31-.58-.53-.99-.53-.69,0-1.24,.56-1.24,1.24v10.43h-1.24v-10.43c0-.26-.1-.5-.24-.7-.22-.32-.58-.54-1-.54-.69,0-1.24,.56-1.24,1.24v21.45c.32,.31,.65,.62,.98,.92h6.68Zm4.76-10.31c.53,0,.95,.43,.95,.95s-.43,.95-.95,.95-.95-.43-.95-.95,.43-.95,.95-.95Zm-3.73,0c.53,0,.95,.43,.95,.95s-.43,.95-.95,.95-.95-.43-.95-.95,.43-.95,.95-.95Zm-3.73,0c.53,0,.95,.43,.95,.95s-.43,.95-.95,.95-.95-.43-.95-.95,.43-.95,.95-.95Zm-3.73,0c.53,0,.95,.43,.95,.95s-.43,.95-.95,.95-.95-.43-.95-.95,.43-.95,.95-.95Z"/>
        <path class="cls-3" d="M14.43,65.72c.53,0,.95-.43,.95-.95s-.43-.95-.95-.95-.95,.43-.95,.95,.43,.95,.95,.95Z"/>
        <path class="cls-3" d="M18.16,65.72c.53,0,.95-.43,.95-.95s-.43-.95-.95-.95-.95,.43-.95,.95,.43,.95,.95,.95Z"/>
        <path class="cls-3" d="M21.89,65.72c.53,0,.95-.43,.95-.95s-.43-.95-.95-.95-.95,.43-.95,.95,.43,.95,.95,.95Z"/>
        <path class="cls-3" d="M25.61,65.72c.53,0,.95-.43,.95-.95s-.43-.95-.95-.95-.95,.43-.95,.95,.43,.95,.95,.95Z"/>
        <path class="cls-9" d="M20.85,79.02v-4.9h-6.68c2.06,1.84,4.29,3.48,6.68,4.9Z"/>
        <path d="M30.51,74.12h-9.66v4.9c1.78,1.05,3.64,1.98,5.57,2.77,2.46-1.66,4.08-4.47,4.08-7.67Z"/>
        <path class="cls-6" d="M70.02,50.93c-.23-.25-.55-.42-.92-.42-.69,0-1.24,.56-1.24,1.24v10.43h-1.24v-10.43c0-.25-.09-.47-.22-.66-.02-.03-.04-.07-.06-.1-.23-.29-.56-.49-.96-.49-.3,0-.57,.12-.78,.3-.28,.23-.46,.56-.46,.94v10.43h-1.24v-10.43c0-.23-.08-.43-.19-.62,0-.02-.02-.03-.03-.05-.22-.34-.59-.58-1.02-.58-.69,0-1.24,.56-1.24,1.24v10.43h-1.24v-10.43c0-.24-.08-.44-.2-.63-.03-.05-.06-.1-.1-.14-.23-.28-.56-.47-.95-.47-.05,0-.09,.02-.14,.03-.62,.07-1.1,.58-1.1,1.21v12.05h-1.24v-5.56c0-.54-.18-1.03-.48-1.44-.03-.05-.07-.09-.11-.14-.4-.47-.97-.8-1.62-.88-.09-.01-.19-.03-.28-.03v13.2c0,.56,.22,1.1,.62,1.5l.97,.97c.57,.57,.89,1.35,.89,2.16,0,.18,.02,.36,.03,.53h14.84c.03-.26,.04-.52,.04-.79v-21.58c0-.32-.13-.6-.33-.82Zm-12.1,14.78c-.53,0-.95-.43-.95-.95s.43-.95,.95-.95,.95,.43,.95,.95-.43,.95-.95,.95Zm3.73,0c-.53,0-.95-.43-.95-.95s.43-.95,.95-.95,.95,.43,.95,.95-.43,.95-.95,.95Zm3.73,0c-.53,0-.95-.43-.95-.95s.43-.95,.95-.95,.95,.43,.95,.95-.43,.95-.95,.95Zm3.73,0c-.53,0-.95-.43-.95-.95s.43-.95,.95-.95,.95,.43,.95,.95-.43,.95-.95,.95Z"/>
        <path class="cls-3" d="M69.1,63.81c-.53,0-.95,.43-.95,.95s.43,.95,.95,.95,.95-.43,.95-.95-.43-.95-.95-.95Z"/>
        <path class="cls-3" d="M65.38,63.81c-.53,0-.95,.43-.95,.95s.43,.95,.95,.95,.95-.43,.95-.95-.43-.95-.95-.95Z"/>
        <path class="cls-3" d="M61.65,63.81c-.53,0-.95,.43-.95,.95s.43,.95,.95,.95,.95-.43,.95-.95-.43-.95-.95-.95Z"/>
        <path class="cls-3" d="M57.92,63.81c-.53,0-.95,.43-.95,.95s.43,.95,.95,.95,.95-.43,.95-.95-.43-.95-.95-.95Z"/>
        <path d="M62.68,74.12v5.71c2.93-1.59,5.64-3.51,8.1-5.71h-8.1Z"/>
        <path class="cls-9" d="M62.68,74.12h-9.66c0,3.43,1.87,6.41,4.64,8.01,1.73-.66,3.4-1.42,5.01-2.3v-5.71Z"/>
      </g>
    </g>
  </g>
</svg>