<?xml version="1.0" encoding="UTF-8"?>
<svg id="Layer_2" data-name="Layer 2" xmlns="http://www.w3.org/2000/svg" viewBox="0 0 95.79 93.54">
  <defs>
    <style>
      .cls-1 {
        fill: #fff;
      }

      .cls-2 {
        fill: #f54a4f;
      }

      .cls-3 {
        fill: #e58800;
      }

      .cls-4 {
        fill: #b77e22;
      }

      .cls-5 {
        fill: #b8383b;
      }

      .cls-6 {
        fill: #a7acb0;
      }

      .cls-7 {
        fill: #7fc6ff;
      }

      .cls-8 {
        fill: #29a0ff;
      }

      .cls-9 {
        fill: #f4a82d;
      }

      .cls-10 {
        fill: #d3d7db;
      }

      .cls-11 {
        fill: #146cb3;
      }

      .cls-12 {
        fill: #ffc436;
      }

      .cls-13 {
        fill: #f4d34a;
      }
    </style>
  </defs>
  <g id="Layer_2-2" data-name="Layer 2">
    <g>
      <circle class="cls-10" cx="48.13" cy="51.06" r="42.48" transform="translate(-10.61 12.68) rotate(-13.53)"/>
      <path class="cls-10" d="M93.56,59.74l2.22-.71-.48-2.7-2.33,.09c-.3-.77-.72-1.49-1.23-2.12l1.24-1.98-2.1-1.76-1.73,1.57c-.71-.39-1.49-.68-2.31-.84l-.32-2.31h-2.74l-.32,2.31c-.82,.17-1.6,.46-2.31,.84l-1.73-1.57-2.1,1.76,1.24,1.98c-.51,.64-.92,1.35-1.23,2.12l-2.33-.09-.48,2.7,2.22,.71c.02,.84,.17,1.65,.43,2.42l-1.84,1.43,1.37,2.37,2.16-.88c.54,.61,1.18,1.15,1.88,1.58l-.49,2.28,2.58,.94,1.08-2.06c.4,.06,.81,.09,1.23,.09s.83-.03,1.23-.09l1.09,2.06,2.58-.94-.49-2.28c.7-.43,1.33-.97,1.88-1.58l2.16,.88,1.37-2.37-1.84-1.43c.26-.76,.4-1.58,.43-2.42Zm-8.4,4.01c-2.34,0-4.25-1.91-4.25-4.25s1.9-4.25,4.25-4.25,4.25,1.91,4.25,4.25-1.91,4.25-4.25,4.25Z"/>
      <path class="cls-10" d="M19.01,39.47l2.22-.71-.48-2.7-2.33,.09c-.3-.77-.72-1.49-1.23-2.12l1.24-1.98-2.1-1.76-1.73,1.57c-.71-.39-1.49-.67-2.31-.84l-.32-2.31h-2.74l-.32,2.31c-.82,.17-1.6,.46-2.31,.84l-1.73-1.57-2.1,1.76,1.24,1.98c-.51,.64-.92,1.35-1.23,2.12l-2.33-.09-.48,2.7,2.22,.71c.02,.84,.17,1.66,.43,2.42l-1.84,1.43,1.37,2.37,2.16-.88c.54,.61,1.18,1.15,1.88,1.58l-.49,2.28,2.57,.94,1.09-2.06c.4,.06,.81,.09,1.23,.09s.83-.03,1.23-.09l1.09,2.06,2.58-.94-.49-2.28c.7-.43,1.33-.97,1.88-1.58l2.16,.88,1.37-2.37-1.84-1.43c.26-.76,.4-1.58,.43-2.42Zm-8.4,4.01c-2.34,0-4.25-1.9-4.25-4.25s1.9-4.25,4.25-4.25,4.25,1.91,4.25,4.25-1.91,4.25-4.25,4.25Z"/>
      <path class="cls-10" d="M31.09,13.88l.73-.24-.16-.89-.77,.03c-.1-.25-.24-.49-.4-.7l.41-.65-.69-.58-.57,.51c-.23-.13-.49-.22-.76-.28l-.1-.76h-.9l-.1,.76c-.27,.06-.53,.15-.76,.28l-.57-.51-.69,.58,.41,.65c-.17,.21-.3,.45-.4,.7l-.77-.03-.16,.89,.73,.24c0,.28,.06,.54,.14,.79l-.61,.47,.45,.78,.71-.29c.18,.2,.39,.38,.62,.52l-.16,.75,.85,.31,.36-.68c.13,.02,.27,.03,.4,.03s.27,0,.4-.03l.36,.68,.85-.31-.16-.75c.23-.14,.44-.32,.62-.52l.71,.29,.45-.78-.61-.47c.08-.25,.13-.52,.14-.79Zm-2.76,1.32c-.77,0-1.4-.63-1.4-1.4s.63-1.4,1.4-1.4,1.4,.63,1.4,1.4-.63,1.4-1.4,1.4Z"/>
      <path class="cls-10" d="M69.89,12.4l1.14-.37-.25-1.39-1.2,.05c-.16-.4-.37-.77-.63-1.1l.64-1.02-1.08-.91-.89,.81c-.37-.2-.77-.35-1.19-.43l-.16-1.19h-1.41l-.16,1.19c-.42,.09-.82,.23-1.19,.43l-.89-.81-1.08,.91,.64,1.02c-.26,.33-.47,.7-.63,1.1l-1.2-.05-.25,1.39,1.14,.37c.01,.43,.09,.85,.22,1.25l-.95,.74,.71,1.22,1.12-.45c.28,.32,.61,.59,.97,.81l-.25,1.17,1.33,.48,.56-1.06c.21,.03,.42,.05,.63,.05s.43-.02,.63-.05l.56,1.06,1.33-.48-.25-1.17c.36-.22,.69-.5,.97-.81l1.12,.45,.71-1.22-.95-.74c.13-.39,.21-.81,.22-1.25Zm-4.33,2.07c-1.21,0-2.19-.98-2.19-2.19s.98-2.19,2.19-2.19,2.19,.98,2.19,2.19-.98,2.19-2.19,2.19Z"/>
      <path class="cls-10" d="M51.63,11.03l2.27-.73-.49-2.76-2.39,.09c-.31-.79-.74-1.52-1.26-2.18l1.27-2.02-2.15-1.8-1.77,1.6c-.73-.4-1.53-.69-2.37-.86l-.32-2.36h-2.81l-.32,2.36c-.84,.17-1.63,.47-2.37,.86l-1.77-1.6-2.15,1.8,1.27,2.02c-.52,.65-.94,1.39-1.26,2.18l-2.39-.09-.49,2.76,2.27,.73c.02,.86,.18,1.69,.44,2.48l-1.89,1.46,1.4,2.43,2.22-.9c.56,.63,1.2,1.17,1.92,1.62l-.5,2.33,2.64,.96,1.11-2.11c.41,.06,.83,.09,1.26,.09s.85-.03,1.26-.09l1.11,2.11,2.64-.96-.5-2.33c.72-.44,1.37-.99,1.92-1.62l2.22,.9,1.4-2.43-1.89-1.46c.26-.78,.41-1.61,.44-2.48Zm-8.6,4.11c-2.4,0-4.35-1.95-4.35-4.35s1.95-4.35,4.35-4.35,4.35,1.95,4.35,4.35-1.95,4.35-4.35,4.35Z"/>
      <polygon points="47.78 63.93 65.8 63.93 76.78 44.9 47.78 44.9 18.76 44.9 18.7 44.9 18.76 45 29.69 63.93 47.78 63.93"/>
      <polygon class="cls-11" points="18.7 44.9 29.69 25.88 65.8 25.88 76.78 44.9 18.7 44.9"/>
      <rect class="cls-12" x="44.31" y="23.29" width="6.94" height="5.17"/>
      <rect class="cls-1" x="21.7" y="13.35" width="15.42" height="69.4" transform="translate(-20 20.99) rotate(-29.83)"/>
      <rect class="cls-6" x="7.6" y="19.33" width="15.42" height="1.66" transform="translate(-8 10.29) rotate(-29.83)"/>
      <rect class="cls-6" x="9.23" y="22.23" width="15.42" height="1.66" transform="translate(-9.22 11.48) rotate(-29.83)"/>
      <rect class="cls-6" x="10.87" y="25.13" width="15.42" height="1.66" transform="translate(-10.45 12.68) rotate(-29.83)"/>
      <rect class="cls-6" x="12.49" y="28.03" width="15.42" height="1.66" transform="translate(-11.68 13.87) rotate(-29.83)"/>
      <rect class="cls-6" x="14.11" y="30.91" width="15.42" height="1.66" transform="translate(-12.9 15.06) rotate(-29.83)"/>
      <rect class="cls-6" x="15.74" y="33.81" width="15.42" height="1.66" transform="translate(-14.12 16.25) rotate(-29.83)"/>
      <rect class="cls-6" x="17.38" y="36.71" width="15.42" height="1.66" transform="translate(-15.35 17.45) rotate(-29.83)"/>
      <rect class="cls-6" x="19" y="39.61" width="15.42" height="1.66" transform="translate(-16.57 18.64) rotate(-29.83)"/>
      <rect class="cls-6" x="20.62" y="42.46" width="15.42" height="1.66" transform="translate(-17.78 19.83) rotate(-29.82)"/>
      <rect class="cls-6" x="22.25" y="45.35" width="15.42" height="1.66" transform="translate(-19 21.02) rotate(-29.83)"/>
      <rect class="cls-6" x="23.87" y="48.23" width="15.42" height="1.66" transform="translate(-20.22 22.2) rotate(-29.83)"/>
      <rect class="cls-6" x="25.49" y="51.13" width="15.42" height="1.66" transform="translate(-21.44 23.39) rotate(-29.82)"/>
      <rect class="cls-6" x="27.13" y="54.04" width="15.42" height="1.66" transform="translate(-22.67 24.59) rotate(-29.82)"/>
      <rect class="cls-6" x="28.76" y="56.93" width="15.42" height="1.66" transform="translate(-23.9 25.79) rotate(-29.83)"/>
      <g>
        <rect class="cls-12" x="38.07" y="50.64" width="36.69" height="7.45" transform="translate(-5.69 102.12) rotate(-81.5)"/>
        <rect class="cls-3" x="45.69" y="51.52" width="36.69" height="7.97" transform="translate(-.32 110.64) rotate(-81.5)"/>
      </g>
      <g>
        <rect class="cls-8" x="38.45" y="38.93" width="4.68" height="27.59" transform="translate(-8.75 8.12) rotate(-10.28)"/>
        <rect class="cls-7" x="38.37" y="39.22" width="1.56" height="26.36" transform="translate(-8.73 7.83) rotate(-10.28)"/>
        <rect class="cls-11" x="41.44" y="38.66" width="1.56" height="26.36" transform="translate(-8.58 8.37) rotate(-10.28)"/>
        <g>
          <polygon class="cls-1" points="38.33 39.16 36.03 39.57 37.19 37.91 38.08 37.75 38.33 39.16"/>
          <polygon class="cls-10" points="38.33 39.16 38.08 37.75 38.97 37.58 40.63 38.74 38.33 39.16"/>
          <polygon class="cls-2" points="37.19 37.91 37.91 36.85 38.08 37.75 37.19 37.91"/>
          <polygon class="cls-5" points="37.91 36.85 38.97 37.58 38.08 37.75 37.91 36.85"/>
        </g>
        <g>
          <path class="cls-5" d="M43.25,66.3l-2.3,.42,.27,1.5c.23,1.27,1.35,1.59,2.62,1.36,1.27-.23,2.21-.92,1.98-2.19l-.27-1.5-2.3,.42Z"/>
          <rect class="cls-1" x="40.82" y="65.29" width="2.34" height="1.22" transform="translate(-11.1 8.57) rotate(-10.29)"/>
          <rect class="cls-10" x="43.13" y="64.87" width="2.34" height="1.22" transform="translate(-10.97 8.95) rotate(-10.28)"/>
        </g>
      </g>
      <g>
        <polygon class="cls-10" points="77.46 36.94 80.25 34.13 79.45 36.95 75.17 41.25 73.99 40.07 77.28 36.77 77.46 36.94"/>
        <polygon class="cls-1" points="79.9 33.79 77.11 36.59 77.28 36.77 73.99 40.07 72.81 38.9 77.09 34.61 79.9 33.79"/>
        <path d="M77.57,36.12l2.33-2.34h.35s0,.34,0,.34l-2.33,2.34c.14,.29,.09,.63-.14,.87-.29,.29-.77,.29-1.07,0-.29-.29-.29-.77,0-1.07,.23-.24,.58-.28,.86-.15Z"/>
        <g>
          <polygon class="cls-2" points="53.16 60.99 42.14 72.05 39.8 69.71 40.73 68.77 40.73 68.76 41.54 67.95 50.81 58.64 53.16 60.99"/>
          <polygon class="cls-5" points="55.52 63.33 46.25 72.64 45.44 73.45 44.5 74.39 42.14 72.05 53.16 60.99 55.52 63.33"/>
          <rect class="cls-5" x="52.24" y="49.11" width="26.63" height="2.73" transform="translate(-16.47 61.31) rotate(-45.11)"/>
          <rect class="cls-2" x="50.33" y="47.25" width="26.63" height="2.65" transform="translate(-15.68 59.4) rotate(-45.12)"/>
        </g>
        <path class="cls-1" d="M41.51,71.41l9.33-9.36c.35-.35,.91-.35,1.26,0,.35,.35,.35,.91,0,1.26l-9.33,9.37,1.72,1.71c-.93,.94-2.45,.94-3.38,.01l-.66-.66-.66-.65c-.94-.93-.94-2.45,0-3.38l1.71,1.7Z"/>
        <g>
          <rect class="cls-1" x="64.5" y="45.82" width="1.15" height="2.65" transform="translate(-14.24 60.03) rotate(-45.15)"/>
          <rect class="cls-10" x="66.41" y="47.68" width="1.15" height="2.74" transform="translate(-15.03 61.95) rotate(-45.15)"/>
          <rect class="cls-1" x="51.56" y="57.13" width="2.88" height="3.32" transform="translate(-26.05 54.8) rotate(-45.07)"/>
          <rect class="cls-10" x="53.92" y="59.48" width="2.88" height="3.33" transform="translate(-27.03 57.22) rotate(-45.12)"/>
        </g>
      </g>
      <g>
        <g>
          <path class="cls-13" d="M41.66,62.04c0,1.41-1.15,2.56-2.56,2.56v.68c1.79,0,3.25-1.46,3.25-3.25s-1.46-3.25-3.25-3.25v.69c1.41,0,2.56,1.15,2.56,2.56Z"/>
          <path class="cls-9" d="M35.85,62.04c0,1.79,1.46,3.25,3.25,3.25h0v-.68h0c-1.41,0-2.56-1.15-2.56-2.56s1.15-2.56,2.56-2.56h0v-.69h0c-1.79,0-3.25,1.46-3.25,3.25Z"/>
          <path class="cls-9" d="M44.16,62.18l1.34-.43-.29-1.63-1.41,.05c-.18-.46-.43-.9-.74-1.28l.75-1.19-1.27-1.06-1.04,.94c-.43-.23-.9-.41-1.39-.51l-.19-1.39h-.83v3.11c1.79,0,3.25,1.46,3.25,3.25s-1.46,3.25-3.25,3.25v1.82c.25,0,.5-.02,.74-.05l.66,1.24,1.55-.57-.3-1.37c.42-.26,.8-.58,1.13-.95l1.3,.53,.83-1.43-1.11-.86c.15-.46,.24-.95,.26-1.46Z"/>
          <path class="cls-13" d="M39.1,65.28c-1.79,0-3.25-1.46-3.25-3.25s1.46-3.25,3.25-3.25h0v-3.11h-.83l-.19,1.39c-.49,.1-.96,.27-1.39,.51l-1.04-.94-1.27,1.06,.75,1.19c-.31,.38-.56,.82-.74,1.28l-1.41-.05-.29,1.63,1.34,.43c.01,.51,.1,1,.26,1.46l-1.11,.86,.83,1.43,1.3-.53c.33,.37,.71,.69,1.13,.95l-.3,1.37,1.55,.57,.65-1.24c.24,.04,.49,.05,.74,.05h0v-1.82h0Z"/>
        </g>
        <path class="cls-4" d="M41.66,62.03c0,1.41-1.15,2.56-2.56,2.56s-2.56-1.15-2.56-2.56,1.15-2.56,2.56-2.56,2.56,1.15,2.56,2.56Z"/>
      </g>
      <g>
        <path class="cls-8" d="M29.69,63.93l-10.93-18.93v36.44c0,2.99,2.43,5.42,5.42,5.42h23.6v-22.93H29.69Z"/>
        <path class="cls-11" d="M76.78,44.9l-10.98,19.02h-18.02v22.93h23.61c2.99,0,5.42-2.43,5.42-5.42V44.9h-.02Z"/>
        <rect class="cls-3" x="44.31" y="63.93" width="6.94" height="5.18"/>
      </g>
      <g>
        <polygon class="cls-1" points="73.31 54.23 72.31 54.23 72.31 52.73 73.31 50.92 73.31 54.23"/>
        <path class="cls-1" d="M70.83,82.92h-.57v-1h.57c.62,0,1.18-.39,1.39-.97l.94,.34c-.35,.97-1.29,1.63-2.33,1.63Zm-3.56,0h-2.99v-1h2.99v1Zm-5.98,0h-2.99v-1h2.99v1Zm-5.98,0h-2.99v-1h2.99v1Zm-5.98,0h-2.99v-1h2.99v1Zm-5.98,0h-2.99v-1h2.99v1Zm-5.98,0h-2.99v-1h2.99v1Zm-5.98,0h-2.99v-1h2.99v1Zm-5.98,0h-.58c-1.03,0-1.97-.65-2.32-1.62l.94-.35c.21,.58,.77,.97,1.39,.97h.58v1Zm-2.06-4.77h-1v-2.99h1v2.99Zm49.95-.01h-1v-2.99h1v2.99Zm-49.95-5.97h-1v-2.99h1v2.99Zm49.95-.01h-1v-2.99h1v2.99Zm-49.95-5.97h-1v-2.99h1v2.99Zm49.95-.01h-1v-2.99h1v2.99Zm-49.95-5.97h-1v-2.99h1v2.99Zm49.95-.01h-1v-2.99h1v2.99Z"/>
        <polygon class="cls-1" points="23.36 54.23 22.36 54.23 22.36 51.23 23.36 52.97 23.36 54.23"/>
      </g>
      <path class="cls-10" d="M91.29,32.14l1.33-.43-.29-1.62-1.4,.05c-.18-.46-.43-.89-.74-1.27l.74-1.18-1.26-1.06-1.03,.94c-.43-.23-.89-.4-1.38-.5l-.19-1.38h-1.64l-.19,1.38c-.49,.1-.96,.27-1.38,.5l-1.03-.94-1.26,1.06,.75,1.18c-.3,.38-.55,.81-.74,1.27l-1.4-.05-.29,1.62,1.33,.43c.01,.5,.1,.99,.26,1.45l-1.1,.86,.82,1.42,1.3-.53c.33,.37,.7,.69,1.12,.95l-.29,1.37,1.54,.56,.65-1.23c.24,.04,.49,.05,.74,.05s.5-.02,.74-.05l.65,1.23,1.54-.56-.29-1.37c.42-.26,.8-.58,1.13-.95l1.3,.53,.82-1.42-1.1-.86c.15-.46,.24-.94,.26-1.45Zm-5.03,2.4c-1.4,0-2.54-1.14-2.54-2.54s1.14-2.54,2.54-2.54,2.55,1.14,2.55,2.54-1.14,2.54-2.55,2.54Z"/>
    </g>
  </g>
</svg>