<?xml version="1.0" encoding="UTF-8"?>
<svg id="Layer_2" data-name="Layer 2" xmlns="http://www.w3.org/2000/svg" viewBox="0 0 84.96 84.96">
  <defs>
    <style>
      .cls-1 {
        fill: #fff;
      }

      .cls-2 {
        fill: #e58800;
      }

      .cls-3 {
        fill: #e0e0e0;
      }

      .cls-4 {
        fill: #29a0ff;
      }

      .cls-5 {
        fill: #146cb3;
      }

      .cls-6 {
        fill: #3e4651;
      }

      .cls-7 {
        fill: #ffc436;
      }

      .cls-8 {
        fill: #002b36;
      }
    </style>
  </defs>
  <g id="Layer_2-2" data-name="Layer 2">
    <g>
      <path class="cls-7" d="M84.96,42.48c0,23.46-19.02,42.48-42.48,42.48S0,65.94,0,42.48,19.02,0,42.48,0s42.48,19.02,42.48,42.48Z"/>
      <g>
        <polygon class="cls-1" points="74.17 68.11 72.63 68.11 72.63 67.5 73.55 67.5 73.55 66.57 74.17 66.57 74.17 68.11"/>
        <path class="cls-1" d="M70.21,68.11h-2.41v-.62h2.41v.62Zm-4.83,0h-2.41v-.62h2.41v.62Zm-4.83,0h-2.41v-.62h2.41v.62Zm-4.83,0h-2.41v-.62h2.41v.62Zm-4.83,0h-2.41v-.62h2.41v.62Zm-4.83,0h-2.41v-.62h2.41v.62Zm-4.83,0h-2.41v-.62h2.41v.62Zm-4.83,0h-2.41v-.62h2.41v.62Zm-4.83,0h-2.41v-.62h2.41v.62Zm-4.83,0h-2.41v-.62h2.41v.62Zm-4.83,0h-2.41v-.62h2.41v.62Zm-4.83,0h-2.41v-.62h2.41v.62Z"/>
        <polygon class="cls-1" points="12.3 68.11 10.75 68.11 10.75 66.57 11.37 66.57 11.37 67.5 12.3 67.5 12.3 68.11"/>
        <path class="cls-1" d="M11.37,64.02h-.62v-2.55h.62v2.55Zm0-5.11h-.62v-2.55h.62v2.55Zm0-5.11h-.62v-2.55h.62v2.55Zm0-5.11h-.62v-2.55h.62v2.55Zm0-5.11h-.62v-2.55h.62v2.55Zm0-5.11h-.62v-2.55h.62v2.55Zm0-5.11h-.62v-2.55h.62v2.55Zm0-5.11h-.62v-2.55h.62v2.55Zm0-5.11h-.62v-2.55h.62v2.55Z"/>
        <polygon class="cls-1" points="11.37 18.03 10.75 18.03 10.75 16.49 12.3 16.49 12.3 17.11 11.37 17.11 11.37 18.03"/>
        <path class="cls-1" d="M70.21,17.11h-2.41v-.62h2.41v.62Zm-4.83,0h-2.41v-.62h2.41v.62Zm-4.83,0h-2.41v-.62h2.41v.62Zm-4.83,0h-2.41v-.62h2.41v.62Zm-4.83,0h-2.41v-.62h2.41v.62Zm-4.83,0h-2.41v-.62h2.41v.62Zm-4.83,0h-2.41v-.62h2.41v.62Zm-4.83,0h-2.41v-.62h2.41v.62Zm-4.83,0h-2.41v-.62h2.41v.62Zm-4.83,0h-2.41v-.62h2.41v.62Zm-4.83,0h-2.41v-.62h2.41v.62Zm-4.83,0h-2.41v-.62h2.41v.62Z"/>
        <polygon class="cls-1" points="74.17 18.03 73.55 18.03 73.55 17.11 72.63 17.11 72.63 16.49 74.17 16.49 74.17 18.03"/>
        <path class="cls-1" d="M74.17,64.02h-.62v-2.55h.62v2.55Zm0-5.11h-.62v-2.55h.62v2.55Zm0-5.11h-.62v-2.55h.62v2.55Zm0-5.11h-.62v-2.55h.62v2.55Zm0-5.11h-.62v-2.55h.62v2.55Zm0-5.11h-.62v-2.55h.62v2.55Zm0-5.11h-.62v-2.55h.62v2.55Zm0-5.11h-.62v-2.55h.62v2.55Zm0-5.11h-.62v-2.55h.62v2.55Z"/>
      </g>
      <g>
        <path class="cls-1" d="M15.23,54.12h54.52v6.19c0,1.38-1.12,2.5-2.5,2.5H17.73c-1.38,0-2.5-1.12-2.5-2.5v-6.19h0Z"/>
        <path d="M17.73,21.23h49.52c1.38,0,2.5,1.12,2.5,2.5V56.93H15.23V23.73c0-1.38,1.12-2.5,2.5-2.5Z"/>
        <path d="M32.76,71.05h19.46c1.34,0,2.43,1.09,2.43,2.43v.19H30.33v-.19c0-1.34,1.09-2.43,2.43-2.43Z"/>
        <g>
          <polygon class="cls-4" points="17.09 24.37 17.09 53.79 67.89 24.37 17.09 24.37"/>
          <polygon class="cls-5" points="17.09 53.79 67.89 53.79 67.89 24.37 17.09 53.79"/>
        </g>
        <g>
          <polygon points="47.49 71.05 47.49 62.81 37.49 62.81 45.73 71.05 47.49 71.05"/>
          <polygon class="cls-6" points="37.49 62.81 37.49 71.05 45.73 71.05 37.49 62.81"/>
        </g>
      </g>
      <rect class="cls-1" x="18.86" y="25.99" width="47.27" height="27.79"/>
      <rect class="cls-6" x="18.86" y="25.99" width="47.27" height="2.57"/>
      <path class="cls-1" d="M65.47,27.15c0,.34-.28,.62-.62,.62s-.62-.28-.62-.62,.28-.62,.62-.62,.62,.28,.62,.62Z"/>
      <path class="cls-1" d="M63.61,27.15c0,.34-.28,.62-.62,.62s-.62-.28-.62-.62,.28-.62,.62-.62,.62,.28,.62,.62Z"/>
      <path class="cls-1" d="M61.75,27.15c0,.34-.28,.62-.62,.62s-.62-.28-.62-.62,.28-.62,.62-.62,.62,.28,.62,.62Z"/>
      <rect class="cls-4" x="18.86" y="28.56" width="47.27" height="5.49"/>
      <rect class="cls-7" x="56" y="28.56" width="10.13" height="25.22"/>
      <rect class="cls-7" x="18.86" y="28.56" width="4.48" height="25.24"/>
      <g>
        <path class="cls-6" d="M44.4,48.88v3.5l4.34-4.34h-3.5c-.46,0-.84,.38-.84,.84Z"/>
        <path class="cls-8" d="M44.4,52.38h3.5c.46,0,.84-.38,.84-.84v-3.5l-4.34,4.34Z"/>
      </g>
      <rect class="cls-5" x="25.2" y="30.42" width="1.86" height="1.86"/>
      <rect class="cls-5" x="28" y="30.42" width="1.86" height="1.86"/>
      <rect class="cls-1" x="57.74" y="30.42" width="6.65" height=".93"/>
      <rect class="cls-1" x="57.74" y="32.28" width="6.65" height=".93"/>
      <rect class="cls-1" x="57.74" y="34.15" width="6.65" height=".93"/>
      <rect class="cls-3" x="27.06" y="35.12" width="15.49" height=".68"/>
      <rect class="cls-3" x="27.06" y="36.48" width="15.49" height=".68"/>
      <rect class="cls-3" x="27.06" y="37.84" width="15.49" height=".68"/>
      <rect class="cls-3" x="27.06" y="39.2" width="15.49" height=".68"/>
      <rect class="cls-3" x="44.87" y="35.12" width="8.91" height=".68"/>
      <rect class="cls-3" x="44.87" y="36.48" width="8.91" height=".68"/>
      <rect class="cls-3" x="44.87" y="37.84" width="8.91" height=".68"/>
      <rect class="cls-3" x="44.87" y="39.2" width="8.91" height=".68"/>
      <rect class="cls-3" x="27.06" y="40.56" width="15.49" height=".68"/>
      <rect class="cls-3" x="27.06" y="41.92" width="15.49" height=".68"/>
      <rect class="cls-3" x="27.06" y="43.29" width="15.49" height=".68"/>
      <rect class="cls-3" x="44.87" y="40.56" width="8.91" height=".68"/>
      <rect class="cls-3" x="44.87" y="41.92" width="8.91" height=".68"/>
      <rect class="cls-3" x="44.87" y="43.29" width="8.91" height=".68"/>
      <rect class="cls-3" x="27.06" y="44.65" width="15.49" height=".68"/>
      <rect class="cls-3" x="27.06" y="46.01" width="15.49" height=".68"/>
      <rect class="cls-3" x="44.87" y="44.65" width="8.91" height=".68"/>
      <rect class="cls-3" x="44.87" y="46.01" width="8.91" height=".68"/>
      <g>
        <path class="cls-7" d="M31.39,48.88v3.5l4.34-4.34h-3.5c-.46,0-.84,.38-.84,.84Z"/>
        <path class="cls-2" d="M31.39,52.38h3.5c.46,0,.84-.38,.84-.84v-3.5l-4.34,4.34Z"/>
      </g>
      <g>
        <path class="cls-4" d="M37.89,48.88v3.5l4.34-4.34h-3.5c-.46,0-.84,.38-.84,.84Z"/>
        <path class="cls-5" d="M37.89,52.38h3.5c.46,0,.84-.38,.84-.84v-3.5l-4.34,4.34Z"/>
      </g>
      <path class="cls-1" d="M72.13,67.5c0-.88,.71-1.59,1.59-1.59s1.59,.71,1.59,1.59-.71,1.59-1.59,1.59-1.59-.71-1.59-1.59Z"/>
      <path class="cls-1" d="M72.13,17.17c0-.88,.71-1.59,1.59-1.59s1.59,.71,1.59,1.59-.71,1.59-1.59,1.59-1.59-.71-1.59-1.59Z"/>
      <path class="cls-1" d="M9.64,17.17c0-.88,.71-1.59,1.59-1.59s1.59,.71,1.59,1.59-.71,1.59-1.59,1.59-1.59-.71-1.59-1.59Z"/>
      <path class="cls-1" d="M9.64,67.5c0-.88,.71-1.59,1.59-1.59s1.59,.71,1.59,1.59-.71,1.59-1.59,1.59-1.59-.71-1.59-1.59Z"/>
      <g>
        <g>
          <path d="M76.96,76.41l1.64,3.39c.21,.43,.72,.61,1.14,.4l.66-.32c.43-.21,.61-.72,.4-1.14l-1.63-3.39-1.28,.17-.93,.89Z"/>
          <path class="cls-6" d="M81.74,71.8l-6.51-5.9c-.58-.53-1.42-.65-2.13-.31-.71,.34-1.14,1.07-1.08,1.86l.56,8.77c.04,.64,.4,1.22,.95,1.54,.56,.32,1.23,.35,1.81,.07,.18-.09,.35-.2,.5-.34l1.13-1.08,.93-.89,1.28-.17,1.54-.21c.2-.03,.4-.09,.58-.17,.58-.28,.98-.82,1.07-1.46,.09-.63-.14-1.27-.61-1.7Zm-1.14,1.75s-.07,.03-.11,.03l-3.21,.44s-.07,.02-.11,.03c-.03,.02-.06,.04-.09,.06l-2.34,2.24s-.06,.05-.09,.06c-.22,.1-.49-.04-.51-.3l-.56-8.77c-.01-.16,.08-.29,.2-.34,.12-.06,.28-.05,.39,.06l6.51,5.9c.2,.18,.13,.48-.08,.59Z"/>
        </g>
        <g>
          <path class="cls-7" d="M80.69,72.96l-6.51-5.9c-.12-.11-.27-.11-.39-.06l3.39,7.05s.07-.03,.11-.03l3.21-.44s.08-.02,.11-.03c.22-.1,.28-.41,.08-.59Z"/>
          <path class="cls-2" d="M73.78,67c-.12,.06-.21,.18-.2,.34l.56,8.77c.02,.26,.29,.4,.51,.3,.03-.02,.06-.04,.09-.06l2.34-2.24s.06-.05,.09-.06l-3.39-7.05s0,0,0,0Z"/>
        </g>
      </g>
    </g>
  </g>
</svg>